<svg xmlns="http://www.w3.org/2000/svg" width="11.969" height="11.97" viewBox="0 0 11.969 11.97">
  <defs>
    <style>
      .cls-1 {
        fill: #fff;
        fill-rule: evenodd;
      }
    </style>
  </defs>
  <path class="cls-1" d="M149.745,1335.01a5.23,5.23,0,0,1-3.731-1.55l-2.463-2.47a5.3,5.3,0,0,1-.034-7.44c0.011-.01.023-0.03,0.034-0.04a1.793,1.793,0,0,1,2.482.01l1.241,1.24a1.75,1.75,0,0,1,0,2.48l-0.624.63,2.482,2.48,0.615-.61a1.807,1.807,0,0,1,2.5,0l1.232,1.23a1.758,1.758,0,0,1,.514,1.25,1.734,1.734,0,0,1-.514,1.24c-0.013.01-.027,0.03-0.041,0.04A5.26,5.26,0,0,1,149.745,1335.01Zm-4.953-10.25a3.542,3.542,0,0,0,0,4.99l2.463,2.47a3.524,3.524,0,0,0,4.959.02l-1.206-1.26-0.634.62a1.8,1.8,0,0,1-2.483,0l-2.482-2.49a1.753,1.753,0,0,1,0-2.48l0.614-.62Z" transform="translate(-142.031 -1323.03)"/>
</svg>
