<svg xmlns="http://www.w3.org/2000/svg" width="12" height="10" viewBox="0 0 12 10">
  <defs>
    <style>
      .cls-1 {
        fill: #fff;
        fill-rule: evenodd;
      }
    </style>
  </defs>
  <path class="cls-1" d="M327.25,1334h-10.5a0.792,0.792,0,0,1-.75-0.83v-8.34a0.792,0.792,0,0,1,.75-0.83h10.5a0.792,0.792,0,0,1,.75.83v8.34A0.792,0.792,0,0,1,327.25,1334Zm-9.75-1.67h9v-5.58l-4.02,3.72a0.688,0.688,0,0,1-.96,0l-4.02-3.72v5.58Zm1.171-6.66,3.329,3.08,3.328-3.08h-6.657Z" transform="translate(-316 -1324)"/>
</svg>
