<svg xmlns="http://www.w3.org/2000/svg" width="48" height="47.969" viewBox="0 0 48 47.969">
  <defs>
    <style>
      .cls-1 {
        fill: #fff;
        fill-rule: evenodd;
      }
    </style>
  </defs>
  <path class="cls-1" d="M615.187,377.134l-23.51-23.347a2.993,2.993,0,0,0-2.267-.8l-18.709.1a2.709,2.709,0,0,0-2.7,2.741l0.092,19.088a2.776,2.776,0,0,0,.805,1.925l23.511,23.347a2.7,2.7,0,0,0,1.909.78,2.739,2.739,0,0,0,1.936-.8L615.2,380.993A2.729,2.729,0,0,0,615.187,377.134Zm-1.408,2.445-18.944,19.177a0.613,0.613,0,0,1-1.013.005l-23.5-23.34a0.737,0.737,0,0,1-.217-0.512l-0.092-19.088a0.718,0.718,0,0,1,.712-0.724l17.792-.086,0.9-.018a1.051,1.051,0,0,1,.857.222l23.512,23.347A0.718,0.718,0,0,1,613.779,379.579Zm-31.188-18.935a5.009,5.009,0,0,0-6.927,0,4.928,4.928,0,0,0,0,6.946A4.9,4.9,0,0,0,582.591,360.644Zm-1.416,5.526a2.959,2.959,0,0,1-4.095,0,2.911,2.911,0,0,1,0-4.105A2.9,2.9,0,0,1,581.175,366.17Zm10.431,16.951c-1.95,1.956-2.175,4.913-.5,6.591a3.954,3.954,0,0,0,2.832,1.132,5.364,5.364,0,0,0,3.741-1.633,5.467,5.467,0,0,0,1.608-3.3,4.014,4.014,0,0,0-1.107-3.289C596.566,381,593.488,381.234,591.606,383.121Zm4.656,4.67a3.352,3.352,0,0,1-2.325,1.045,1.962,1.962,0,0,1-1.415-.543c-0.894-.9-0.669-2.579.5-3.752a3.363,3.363,0,0,1,2.325-1.045,1.963,1.963,0,0,1,1.416.544,2.037,2.037,0,0,1,.53,1.675A3.447,3.447,0,0,1,596.262,387.791Zm-3.084-10.262a5.373,5.373,0,0,0,3.744-1.634c1.949-1.954,2.174-4.911.5-6.59-1.619-1.623-4.7-1.384-6.575.5a5.471,5.471,0,0,0-1.607,3.3,4.015,4.015,0,0,0,1.109,3.288A3.952,3.952,0,0,0,593.178,377.529Zm-0.915-6.3a3.363,3.363,0,0,1,2.328-1.044,1.963,1.963,0,0,1,1.415.543c0.894,0.9.669,2.58-.5,3.751a3.369,3.369,0,0,1-2.328,1.046,1.96,1.96,0,0,1-1.413-.544,2.038,2.038,0,0,1-.53-1.675A3.442,3.442,0,0,1,592.263,371.225Zm11.707,5.594-19.954,3.2a1,1,0,0,0,.157,2,1.077,1.077,0,0,0,.16-0.012l19.954-3.2A1,1,0,0,0,603.97,376.819Z" transform="translate(-568 -353)"/>
</svg>
