<svg xmlns="http://www.w3.org/2000/svg" width="48" height="47.906" viewBox="0 0 48 47.906">
  <defs>
    <style>
      .cls-1 {
        fill: #fff;
        fill-rule: evenodd;
      }
    </style>
  </defs>
  <path id="icon" class="cls-1" d="M165.928,226.188H171.9a1.008,1.008,0,0,0,1-1.019v-6.133a1.009,1.009,0,0,0-1-1.02h-5.974a1.009,1.009,0,0,0-1,1.02v6.133A1.008,1.008,0,0,0,165.928,226.188Zm1-6.133H170.9v4.095h-3.976v-4.095Zm-1-6.1H171.9a1.008,1.008,0,0,0,1-1.019V206.8a1.009,1.009,0,0,0-1-1.019h-5.974a1.009,1.009,0,0,0-1,1.019v6.133A1.008,1.008,0,0,0,165.928,213.956Zm1-6.133H170.9v4.095h-3.976v-4.095Zm31.279,6.309-15.193-3.227V195.642a1.026,1.026,0,0,0-.348-0.772,0.994,0.994,0,0,0-.8-0.236L155.85,198.6a1.015,1.015,0,0,0-.852,1.008V241.5a1.009,1.009,0,0,0,1,1.019h42a1.009,1.009,0,0,0,1-1.019V215.13A1.013,1.013,0,0,0,198.206,214.132ZM157,200.485l24.017-3.661v43.654H172.9v-9.085a1.008,1.008,0,0,0-1-1.019h-5.974a1.008,1.008,0,0,0-1,1.019v9.085H157V200.485Zm9.93,39.954v-8.027H170.9v8.027h-3.976ZM197,240.478h-6.085v-5.062a1,1,0,1,0-2,0v5.062h-5.907V212.987L197,215.959v24.519Zm-7.084-10.257a1.009,1.009,0,0,0,1-1.019V227a1,1,0,1,0-2,0v2.2A1.008,1.008,0,0,0,189.919,230.221Zm0-6.116a1.009,1.009,0,0,0,1-1.019v-2.2a1,1,0,1,0-2,0v2.2A1.008,1.008,0,0,0,189.919,224.105Z" transform="translate(-153 -194.625)"/>
</svg>
