<?xml version="1.0" encoding="utf-8"?>
<!-- Generator: Adobe Illustrator 19.0.0, SVG Export Plug-In . SVG Version: 6.00 Build 0)  -->
<svg version="1.2" baseProfile="tiny" id="Слой_1"
	 xmlns="http://www.w3.org/2000/svg" xmlns:xlink="http://www.w3.org/1999/xlink" x="0px" y="0px" viewBox="7 -13.9 48 47.9"
	 xml:space="preserve">
<path id="icon" fill="#2EA0F0" d="M19.9,17.7h6c0.6,0,1-0.5,1-1c0,0,0,0,0,0v-6.1c0-0.6-0.4-1-1-1c0,0,0,0,0,0h-6c-0.6,0-1,0.5-1,1
	c0,0,0,0,0,0v6.1C18.9,17.2,19.4,17.7,19.9,17.7C19.9,17.7,19.9,17.7,19.9,17.7z M20.9,11.5h4v4.1h-4L20.9,11.5L20.9,11.5z
	 M19.9,5.4h6c0.6,0,1-0.5,1-1c0,0,0,0,0,0v-6.1c0-0.6-0.4-1-1-1c0,0,0,0,0,0h-6c-0.6,0-1,0.5-1,1c0,0,0,0,0,0v6.1
	C18.9,5,19.4,5.4,19.9,5.4C19.9,5.4,19.9,5.4,19.9,5.4L19.9,5.4z M20.9-0.7h4v4.1h-4L20.9-0.7L20.9-0.7z M52.2,5.6L37,2.4v-15.3
	c0-0.3-0.1-0.6-0.3-0.8c-0.2-0.2-0.5-0.3-0.8-0.2l-26,4C9.4-9.9,9-9.4,9-8.9V33c0,0.6,0.4,1,1,1c0,0,0,0,0,0h42c0.6,0,1-0.5,1-1
	c0,0,0,0,0,0V6.6C53,6.1,52.7,5.7,52.2,5.6L52.2,5.6z M11-8l24-3.7v43.7h-8.1v-9.1c0-0.6-0.4-1-1-1c0,0,0,0,0,0h-6c-0.6,0-1,0.5-1,1
	c0,0,0,0,0,0v9.1H11V-8z M20.9,31.9v-8h4v8H20.9L20.9,31.9z M51,31.9h-6.1v-5.1c0-0.6-0.4-1-1-1s-1,0.4-1,1v5.1H37V4.5l14,3V31.9z
	 M43.9,21.7c0.6,0,1-0.5,1-1c0,0,0,0,0,0v-2.2c0-0.6-0.4-1-1-1s-1,0.4-1,1v2.2C42.9,21.2,43.4,21.7,43.9,21.7
	C43.9,21.7,43.9,21.7,43.9,21.7L43.9,21.7z M43.9,15.6c0.6,0,1-0.5,1-1c0,0,0,0,0,0v-2.2c0-0.6-0.4-1-1-1s-1,0.4-1,1v2.2
	C42.9,15.1,43.4,15.6,43.9,15.6C43.9,15.6,43.9,15.6,43.9,15.6L43.9,15.6z"/>
</svg>
