<?xml version="1.0" encoding="utf-8"?>
<!-- Generator: Adobe Illustrator 19.0.0, SVG Export Plug-In . SVG Version: 6.00 Build 0)  -->
<svg version="1.2" baseProfile="tiny" id="Слой_1"
	 xmlns="http://www.w3.org/2000/svg" xmlns:xlink="http://www.w3.org/1999/xlink" x="0px" y="0px" viewBox="1 -14 36 48"
	 xml:space="preserve">
<path fill="#2EA0F0" d="M36.2-6.7l-6.6-6.5c-0.4-0.5-1-0.8-1.6-0.8H3.6C2.1-14,1-12.8,1-11.4v42.8C1,32.8,2.1,34,3.6,34h30.8
	c1.4,0,2.6-1.2,2.6-2.6V-5C37-5.7,36.7-6.3,36.2-6.7z M34.1-6H29v-5L34.1-6z M34.4,32H3.6C3.3,32,3,31.7,3,31.4v-42.8
	C3-11.7,3.2-12,3.6-12L27-12v7c0,0.6,0.4,1,1,1h7v35.4C35,31.7,34.7,32,34.4,32z M29.1,20H9c-0.6,0-1,0.4-1,1s0.4,1,1,1h20.1
	c0.6,0,1-0.4,1-1S29.6,20,29.1,20z M29.1,14H9c-0.6,0-1,0.4-1,1s0.4,1,1,1h20.1c0.6,0,1-0.4,1-1S29.6,14,29.1,14z M29.1,8H9
	C8.4,8,8,8.4,8,9s0.4,1,1,1h20.1c0.6,0,1-0.4,1-1S29.6,8,29.1,8z M9,4h11.2c0.6,0,1-0.4,1-1s-0.4-1-1-1H9C8.4,2,8,2.4,8,3S8.4,4,9,4
	z"/>
</svg>
