<svg xmlns="http://www.w3.org/2000/svg" width="47.969" height="47.969" viewBox="0 0 47.969 47.969">
  <defs>
    <style>
      .cls-1 {
        fill: #fff;
        fill-rule: evenodd;
      }
    </style>
  </defs>
  <path class="cls-1" d="M171.978,352.821A23.982,23.982,0,1,0,195.964,376.8,24.006,24.006,0,0,0,171.978,352.821Zm0,45.945A21.964,21.964,0,1,1,193.946,376.8,21.988,21.988,0,0,1,171.978,398.766ZM185.3,375.8h-12.31V363.482a1.009,1.009,0,0,0-2.018,0V375.8H158.662a1.009,1.009,0,1,0,0,2.018h12.311v12.311a1.009,1.009,0,1,0,2.018,0V377.813H185.3A1.009,1.009,0,1,0,185.3,375.8Z" transform="translate(-148 -352.812)"/>
</svg>
