<?xml version="1.0" encoding="utf-8"?>
<!-- Generator: Adobe Illustrator 19.0.0, SVG Export Plug-In . SVG Version: 6.00 Build 0)  -->
<svg version="1.2" baseProfile="tiny" id="Слой_1"
	 xmlns="http://www.w3.org/2000/svg" xmlns:xlink="http://www.w3.org/1999/xlink" x="0px" y="0px" viewBox="7 -13 48 46"
	 xml:space="preserve">
<path id="icon" fill="#2EA0F0" d="M50.2,5c-0.6,0-1,0.4-1,1v25H29V14c0-0.6-0.5-1-1-1h-8.1c-0.6,0-1,0.4-1,1v17h-6.1V6
	c0-0.6-0.5-1-1-1s-1,0.5-1,1v26c0,0.6,0.5,1,1,1h38.4c0.6,0,1-0.4,1-1V6C51.2,5.4,50.7,5,50.2,5C50.2,5,50.2,5,50.2,5z M20.9,31V15
	h6.1v16H20.9z M42.1,21c0.6,0,1-0.4,1-1c0,0,0,0,0,0v-6c0-0.6-0.5-1-1-1h-8c-0.6,0-1,0.4-1,1v6c0,0.6,0.5,1,1,1L42.1,21L42.1,21z
	 M35.1,15h6v4h-6V15z M54.8-3.1l-7.5-9.6c-0.2-0.2-0.5-0.4-0.8-0.4H15.5c-0.3,0-0.6,0.1-0.8,0.4L7.2-3.1C7.1-2.9,7-2.7,7-2.4
	C7-0.9,7.6,0.6,8.8,1.7c2.6,2.1,6.3,1.7,8.4-0.8c0.2,0.3,0.5,0.6,0.8,0.8c2.6,2.1,6.3,1.7,8.4-0.8c0.2,0.3,0.5,0.6,0.8,0.8
	c1.1,0.9,2.4,1.4,3.8,1.4c1.8,0,3.5-0.8,4.6-2.2c0.2,0.3,0.5,0.6,0.8,0.8c2.6,2.1,6.3,1.7,8.4-0.8C47.5,4.6,55,3.5,55-2.4
	C55-2.7,54.9-2.9,54.8-3.1L54.8-3.1z M49.4,1.1c-1.9,0.1-3.5-1.3-3.6-3.1c0-0.1,0-0.2,0-0.4c0-0.6-0.5-1-1-1s-1,0.5-1,1
	c0,3.7-4.2,4.3-6.1,2.6c-0.7-0.7-1.1-1.6-1.1-2.6c0-0.6-0.5-1-1-1s-1,0.5-1,1c0,3.7-4.2,4.3-6.1,2.6c-0.7-0.7-1.1-1.6-1.1-2.6
	c0-0.6-0.5-1-1-1s-1,0.5-1,1c0,3.7-4.2,4.3-6.1,2.6c-0.7-0.7-1.1-1.6-1.1-2.6c0-0.6-0.5-1-1-1s-1,0.5-1,1c0,3.7-4.2,4.3-6.1,2.6
	C9.5-0.4,9.1-1.2,9-2.1l7-8.9H46l7,8.9C52.8-0.3,51.3,1.2,49.4,1.1C49.4,1.1,49.4,1.1,49.4,1.1L49.4,1.1z"/>
</svg>
