<svg xmlns="http://www.w3.org/2000/svg" width="12" height="12" viewBox="0 0 12 12">
  <defs>
    <style>
      .cls-1 {
        fill: #fff;
        fill-rule: evenodd;
      }
    </style>
  </defs>
  <path class="cls-1" d="M835,668a6,6,0,1,0,6,6A6,6,0,0,0,835,668Zm4.432,5.25h-1.458a9.7,9.7,0,0,0-.681-3.115A4.5,4.5,0,0,1,839.432,673.25ZM835,678.5c-0.339,0-1.291-1.33-1.464-3.75h2.928C836.291,677.17,835.339,678.5,835,678.5Zm-1.464-5.25c0.173-2.42,1.125-3.75,1.464-3.75s1.291,1.33,1.464,3.75h-2.928Zm-0.829-3.115a9.648,9.648,0,0,0-.681,3.115h-1.458A4.5,4.5,0,0,1,832.707,670.135Zm-2.139,4.615h1.458a9.648,9.648,0,0,0,.681,3.115A4.5,4.5,0,0,1,830.568,674.75Zm6.725,3.115a9.7,9.7,0,0,0,.681-3.115h1.458A4.5,4.5,0,0,1,837.293,677.865Z" transform="translate(-829 -668)"/>
</svg>
