<svg xmlns="http://www.w3.org/2000/svg" width="13" height="18" viewBox="0 0 13 18">
  <defs>
    <style>
      .cls-1 {
        fill: #2ea0f0;
        fill-rule: evenodd;
      }
    </style>
  </defs>
  <path id="карта" class="cls-1" d="M1296.5,675.563a2.562,2.562,0,0,1-1.91-.827,2.865,2.865,0,0,1,0-3.972,2.619,2.619,0,0,1,3.82,0,2.865,2.865,0,0,1,0,3.972A2.562,2.562,0,0,1,1296.5,675.563Zm0-9.563a6.116,6.116,0,0,0-2.53.527,6.741,6.741,0,0,0-2.07,1.45,6.907,6.907,0,0,0-1.39,2.145,6.753,6.753,0,0,0-.51,2.628,7.867,7.867,0,0,0,.86,2.944,38.355,38.355,0,0,0,1.98,3.735,33.682,33.682,0,0,0,2.19,3.209A3.284,3.284,0,0,0,1296.5,684a3.233,3.233,0,0,0,1.46-1.362,33.242,33.242,0,0,0,2.19-3.217,37.268,37.268,0,0,0,1.99-3.744,7.862,7.862,0,0,0,.86-2.927,6.753,6.753,0,0,0-.51-2.628,6.907,6.907,0,0,0-1.39-2.145,6.741,6.741,0,0,0-2.07-1.45A6.116,6.116,0,0,0,1296.5,666Zm0,5.063a1.529,1.529,0,0,0-1.15.492,1.754,1.754,0,0,0,0,2.39,1.59,1.59,0,0,0,2.3,0,1.728,1.728,0,0,0,0-2.39A1.529,1.529,0,0,0,1296.5,671.063Z" transform="translate(-1290 -666)"/>
</svg>
