<svg xmlns="http://www.w3.org/2000/svg" width="10" height="14" viewBox="0 0 10 14">
  <defs>
    <style>
      .cls-1 {
        fill: #18db61;
        fill-rule: evenodd;
      }
    </style>
  </defs>
  <path id="icon" class="cls-1" d="M119,1404a5.143,5.143,0,0,0-5,5.25,5.375,5.375,0,0,0,.951,3.06c0.008,0.02.013,0.03,0.022,0.05l3.334,5.25a0.811,0.811,0,0,0,1.386,0l3.334-5.25,0.022-.05a5.375,5.375,0,0,0,.951-3.06A5.143,5.143,0,0,0,119,1404Zm2.7,7.29-0.05.07-0.042.07c-0.008.02-.016,0.03-0.024,0.05L119,1415.55l-2.577-4.06-0.03-.06-0.043-.07-0.049-.07a3.6,3.6,0,0,1-.634-2.04,3.337,3.337,0,1,1,6.666,0A3.6,3.6,0,0,1,121.7,1411.29Zm-2.7-3.79a1.752,1.752,0,1,0,1.667,1.75A1.708,1.708,0,0,0,119,1407.5Z" transform="translate(-114 -1404)"/>
</svg>
