<svg xmlns="http://www.w3.org/2000/svg" width="36" height="48" viewBox="0 0 36 48">
  <defs>
    <style>
      .cls-1 {
        fill: #fff;
        fill-rule: evenodd;
      }
    </style>
  </defs>
  <path class="cls-1" d="M1022.23,360.3l-6.63-6.54A2.106,2.106,0,0,0,1014,353H989.574A2.6,2.6,0,0,0,987,355.611V398.4a2.59,2.59,0,0,0,2.574,2.6h30.846a2.594,2.594,0,0,0,2.58-2.6V362A2.276,2.276,0,0,0,1022.23,360.3Zm-2.13.7H1015v-5.03Zm0.32,38H989.574a0.6,0.6,0,0,1-.574-0.6V355.611a0.6,0.6,0,0,1,.574-0.611l23.426-.013V362a1,1,0,0,0,1,1h7v35.4A0.6,0.6,0,0,1,1020.42,399Zm-5.35-12H994.99a1,1,0,0,0,0,2h20.08A1,1,0,1,0,1015.07,387Zm0-6H994.99a1,1,0,0,0,0,2h20.08A1,1,0,1,0,1015.07,381Zm0-6H994.99a1,1,0,0,0,0,2h20.08A1,1,0,1,0,1015.07,375Zm-20.08-4h11.16a1,1,0,1,0,0-2H994.99A1,1,0,0,0,994.99,371Z" transform="translate(-987 -353)"/>
</svg>
