<svg xmlns="http://www.w3.org/2000/svg" width="47.968" height="46" viewBox="0 0 47.968 46">
  <defs>
    <style>
      .cls-1 {
        fill: #fff;
        fill-rule: evenodd;
      }
    </style>
  </defs>
  <path id="icon" class="cls-1" d="M609.022,214.965a1.006,1.006,0,0,0-1.01,1v25.02h-20.2V223.955a1.006,1.006,0,0,0-1.01-1h-8.082a1.006,1.006,0,0,0-1.01,1v17.032h-6.061v-25.02a1.01,1.01,0,0,0-2.02,0v26.021a1.006,1.006,0,0,0,1.01,1h38.386a1.006,1.006,0,0,0,1.011-1V215.967A1.006,1.006,0,0,0,609.022,214.965Zm-29.294,26.022v-16.03h6.061v16.03h-6.061Zm21.265-10.014a1,1,0,0,0,1.01-1V224a1.006,1.006,0,0,0-1.01-1h-8.036a1.006,1.006,0,0,0-1.011,1v5.971a1.006,1.006,0,0,0,1.011,1h8.036ZM593.967,225h6.015v3.967h-6.015V225Zm19.627-18.06-7.486-9.556a1.01,1.01,0,0,0-.8-0.388H574.383a1.011,1.011,0,0,0-.8.386l-7.523,9.556a1,1,0,0,0-.213.617,5.313,5.313,0,0,0,1.774,4.139,6.011,6.011,0,0,0,8.422-.84,5.1,5.1,0,0,0,.772.84,6,6,0,0,0,8.414-.837,5.029,5.029,0,0,0,.77.838,5.782,5.782,0,0,0,3.826,1.38,5.667,5.667,0,0,0,4.593-2.219,5.023,5.023,0,0,0,.769.838,6,6,0,0,0,8.421-.841c2.762,3.785,10.2,2.609,10.2-3.3A0.994,0.994,0,0,0,613.594,206.942Zm-5.386,4.127a3.369,3.369,0,0,1-3.589-3.512,1.01,1.01,0,0,0-2.02,0c0,3.713-4.225,4.254-6.073,2.637a3.378,3.378,0,0,1-1.093-2.637,1.01,1.01,0,0,0-2.02,0c0,3.715-4.229,4.25-6.075,2.637a3.376,3.376,0,0,1-1.094-2.637,1.01,1.01,0,0,0-2.02,0c0,3.713-4.228,4.254-6.071,2.637a3.382,3.382,0,0,1-1.093-2.637,1.01,1.01,0,0,0-2.02,0c0,3.719-4.218,4.262-6.081,2.637a3.292,3.292,0,0,1-1.077-2.308L574.876,199h29.94l6.959,8.883A3.353,3.353,0,0,1,608.208,211.069Z" transform="translate(-565.844 -197)"/>
</svg>
