<svg xmlns="http://www.w3.org/2000/svg" width="47.97" height="47.937" viewBox="0 0 47.97 47.937">
  <defs>
    <style>
      .cls-1 {
        fill: #fff;
        fill-rule: evenodd;
      }
    </style>
  </defs>
  <path id="icon" class="cls-1" d="M1028.13,196.908l-12.26-2.056a1.053,1.053,0,0,0-.59.076l-11.42,5.245-9.565-4.391a0.986,0.986,0,0,0-.77-0.027l-11.889,4.5a1.008,1.008,0,0,0-.651.943v30.543a1.008,1.008,0,0,0,.434.829,0.992,0.992,0,0,0,.57.179,0.976,0.976,0,0,0,.353-0.065l11.5-4.352,9.146,4.114a1.007,1.007,0,1,0,.82-1.84l-9.523-4.283a1.006,1.006,0,0,0-.762-0.024l-10.533,3.984V201.892l10.849-4.1,9.6,4.41a1.01,1.01,0,0,0,.84,0l11.56-5.308,11.12,1.865V227.23l-2.83-.528a1,1,0,0,0-1.17.805,1.009,1.009,0,0,0,.81,1.176l4.01,0.751a0.991,0.991,0,0,0,.83-0.215,1.011,1.011,0,0,0,.36-0.776V197.9A1,1,0,0,0,1028.13,196.908Zm-35.256,5.664v19.382a1,1,0,1,0,2.007,0V202.572A1,1,0,1,0,992.874,202.572Zm11.986,11.145v-7.393a1,1,0,1,0-2,0v7.393A1,1,0,1,0,1004.86,213.717Zm12.06-2.725v-9.8a1.005,1.005,0,1,0-2.01,0v9.8A1.005,1.005,0,1,0,1016.92,210.992Zm-4.02,3.952a9.422,9.422,0,0,0-9.41,9.415c0,4.809,7.7,16.641,8.58,17.975a0.994,0.994,0,0,0,.83.451,1.011,1.011,0,0,0,.84-0.451c0.88-1.334,8.58-13.166,8.58-17.975A9.424,9.424,0,0,0,1012.9,214.944Zm0,24.977c-2.64-4.187-7.4-12.38-7.4-15.562a7.405,7.405,0,0,1,14.81,0C1020.31,227.541,1015.55,235.734,1012.9,239.921Zm0-19.26a3.089,3.089,0,1,0,3.09,3.088A3.086,3.086,0,0,0,1012.9,220.661Zm0,4.16a1.072,1.072,0,1,1,1.08-1.072A1.072,1.072,0,0,1,1012.9,224.821Z" transform="translate(-981 -194.844)"/>
</svg>
