<?xml version="1.0" encoding="utf-8"?>
<!-- Generator: Adobe Illustrator 19.0.0, SVG Export Plug-In . SVG Version: 6.00 Build 0)  -->
<svg version="1.2" baseProfile="tiny" id="Слой_1"
	 xmlns="http://www.w3.org/2000/svg" xmlns:xlink="http://www.w3.org/1999/xlink" x="0px" y="0px" viewBox="7 -14 48 48"
	 xml:space="preserve">
<path fill="#2EA0F0" d="M31-14C17.7-14,7-3.2,7,10c0,13.2,10.7,24,24,24c13.2,0,24-10.7,24-24C54.9-3.2,44.2-13.9,31-14z M31,32
	C18.8,32,9,22.1,9,10c0-12.1,9.8-22,22-22c12.1,0,22,9.8,22,22C52.9,22.1,43.1,32,31,32L31,32z M44.3,9H32V-3.3c0-0.6-0.5-1-1-1
	s-1,0.5-1,1V9H17.7c-0.6,0-1,0.5-1,1s0.5,1,1,1l0,0H30v12.3c0,0.6,0.5,1,1,1s1-0.5,1-1V11h12.3c0.6,0,1-0.4,1.1-0.9S45,9.1,44.4,9
	C44.4,9,44.3,9,44.3,9z"/>
</svg>
