<?xml version="1.0" encoding="utf-8"?>
<!-- Generator: Adobe Illustrator 19.0.0, SVG Export Plug-In . SVG Version: 6.00 Build 0)  -->
<svg version="1.2" baseProfile="tiny" id="Слой_1"
	 xmlns="http://www.w3.org/2000/svg" xmlns:xlink="http://www.w3.org/1999/xlink" x="0px" y="0px" viewBox="7 -13.9 48 47.9"
	 xml:space="preserve">
<path id="icon" fill="#2EA0F0" d="M54.1-11.9l-12.3-2.1c-0.2,0-0.4,0-0.6,0.1L29.9-8.6L20.3-13c-0.2-0.1-0.5-0.1-0.8,0L7.6-8.5
	C7.2-8.4,7-8,7-7.6V23c0,0.3,0.2,0.6,0.4,0.8C7.6,23.9,7.8,24,8,24c0.1,0,0.2,0,0.4-0.1l11.5-4.4l9.1,4.1c0.5,0.2,1.1,0,1.3-0.5
	s0-1.1-0.5-1.3l0,0l-9.5-4.3c-0.2-0.1-0.5-0.1-0.8,0L9,21.5V-6.9L19.8-11l9.6,4.4c0.3,0.1,0.6,0.1,0.8,0l11.6-5.3L53-10v28.5
	l-2.8-0.5c-0.5-0.1-1.1,0.3-1.2,0.8c0,0,0,0,0,0c-0.1,0.5,0.3,1.1,0.8,1.2c0,0,0,0,0,0l4,0.8c0.3,0.1,0.6,0,0.8-0.2
	c0.2-0.2,0.4-0.5,0.4-0.8v-30.5C55-11.4,54.6-11.8,54.1-11.9z M18.9-6.2v19.4c0,0.6,0.4,1,1,1c0.6,0,1-0.4,1-1V-6.2c0-0.6-0.4-1-1-1
	C19.3-7.2,18.9-6.8,18.9-6.2z M30.9,4.9v-7.4c0-0.6-0.4-1-1-1s-1,0.4-1,1v7.4c0,0.6,0.4,1,1,1C30.4,5.9,30.9,5.5,30.9,4.9
	C30.9,4.9,30.9,4.9,30.9,4.9L30.9,4.9z M42.9,2.2v-9.8c0-0.6-0.4-1-1-1s-1,0.4-1,1v9.8c0,0.6,0.4,1,1,1C42.5,3.2,42.9,2.8,42.9,2.2
	C42.9,2.2,42.9,2.2,42.9,2.2L42.9,2.2z M38.9,6.2c-5.2,0-9.4,4.2-9.4,9.4c0,4.8,7.7,16.6,8.6,18c0.2,0.3,0.5,0.5,0.8,0.5
	c0.3,0,0.7-0.2,0.8-0.5c0.9-1.3,8.6-13.2,8.6-18C48.3,10.4,44.1,6.2,38.9,6.2z M38.9,31.1c-2.6-4.2-7.4-12.4-7.4-15.6
	c0-4.1,3.3-7.4,7.4-7.4c4.1,0,7.4,3.3,7.4,7.4C46.3,18.8,41.5,27,38.9,31.1z M38.9,11.9c-1.7,0-3.1,1.4-3.1,3.1
	c0,1.7,1.4,3.1,3.1,3.1c1.7,0,3.1-1.4,3.1-3.1C42,13.3,40.6,11.9,38.9,11.9C38.9,11.9,38.9,11.9,38.9,11.9L38.9,11.9z M38.9,16
	c-0.6,0-1.1-0.5-1.1-1.1c0-0.6,0.5-1.1,1.1-1.1c0.6,0,1.1,0.5,1.1,1.1C40,15.6,39.5,16,38.9,16C38.9,16,38.9,16,38.9,16L38.9,16z"/>
</svg>
