<?xml version="1.0" encoding="utf-8"?>
<!-- Generator: Adobe Illustrator 19.0.0, SVG Export Plug-In . SVG Version: 6.00 Build 0)  -->
<svg version="1.2" baseProfile="tiny" id="Слой_1"
	 xmlns="http://www.w3.org/2000/svg" xmlns:xlink="http://www.w3.org/1999/xlink" x="0px" y="0px" viewBox="7 -14 48 48"
	 xml:space="preserve">
<path fill="#2EA0F0" d="M54.2,10.2L30.7-13.2c-0.6-0.6-1.4-0.9-2.3-0.8L9.7-13.9c-1.5,0-2.7,1.2-2.7,2.7c0,0,0,0,0,0L7.1,7.9
	c0,0.7,0.3,1.4,0.8,1.9l23.5,23.3c0.5,0.5,1.2,0.8,1.9,0.8c0.7,0,1.4-0.3,1.9-0.8L54.2,14C55.3,13,55.3,11.2,54.2,10.2z M52.8,12.6
	L33.8,31.8c-0.2,0.3-0.6,0.4-0.9,0.2c-0.1,0-0.1-0.1-0.2-0.2L9.3,8.5C9.2,8.3,9.1,8.1,9.1,7.9L9-11.1c0-0.4,0.3-0.7,0.7-0.7l0,0
	L27.5-12l0.9,0c0.3-0.1,0.6,0,0.9,0.2l23.5,23.3C53.1,11.9,53.1,12.3,52.8,12.6C52.8,12.6,52.8,12.6,52.8,12.6z M21.6-6.3
	c-1.9-1.9-5-1.9-6.9,0c-1.9,1.9-1.9,5,0,6.9c1.9,1.9,5,1.9,6.9,0C23.5-1.3,23.5-4.4,21.6-6.3z M20.2-0.8c-1.1,1.1-3,1.1-4.1,0
	c-1.1-1.1-1.1-3,0-4.1c1.2-1.1,3-1.1,4.1,0.1C21.2-3.7,21.2-1.9,20.2-0.8z M30.6,16.2c-2,2-2.2,4.9-0.5,6.6c0.8,0.7,1.8,1.1,2.8,1.1
	c1.4,0,2.8-0.6,3.7-1.6c0.9-0.9,1.5-2,1.6-3.3c0.1-1.2-0.3-2.4-1.1-3.3C35.6,14,32.5,14.3,30.6,16.2L30.6,16.2z M35.3,20.8
	c-0.6,0.6-1.4,1-2.3,1c-0.5,0-1-0.2-1.4-0.5c-0.9-0.9-0.7-2.6,0.5-3.8c0.6-0.6,1.4-1,2.3-1c0.5,0,1,0.2,1.4,0.5
	c0.4,0.4,0.6,1.1,0.5,1.7C36.2,19.5,35.8,20.3,35.3,20.8L35.3,20.8z M32.2,10.6c1.4,0,2.8-0.6,3.7-1.6c1.9-2,2.2-4.9,0.5-6.6
	c-1.6-1.6-4.7-1.4-6.6,0.5c-0.9,0.9-1.5,2-1.6,3.3c-0.1,1.2,0.3,2.4,1.1,3.3C30.1,10.2,31.1,10.6,32.2,10.6L32.2,10.6z M31.3,4.3
	c0.6-0.6,1.4-1,2.3-1c0.5,0,1,0.2,1.4,0.5c0.9,0.9,0.7,2.6-0.5,3.8c-0.6,0.6-1.4,1-2.3,1c-0.5,0-1-0.2-1.4-0.5
	c-0.4-0.4-0.6-1.1-0.5-1.7C30.3,5.5,30.7,4.8,31.3,4.3L31.3,4.3z M43,9.9l-20,3.2c-0.6,0-1,0.5-0.9,1.1s0.5,1,1.1,0.9
	c0.1,0,0.1,0,0.2,0l20-3.2c0.6-0.1,0.9-0.6,0.8-1.2C44,10.1,43.5,9.8,43,9.9L43,9.9L43,9.9z"/>
</svg>
