<svg xmlns="http://www.w3.org/2000/svg" width="50" height="6" viewBox="0 0 50 6">
  <defs>
    <style>
      .cls-1 {
        fill: #888;
        fill-rule: evenodd;
      }
    </style>
  </defs>
  <path id="Shape_439_copy_2" data-name="Shape 439 copy 2" class="cls-1" d="M281.094,555.781A0.379,0.379,0,0,1,281,555.5a0.462,0.462,0,0,1,.156-0.359,0.54,0.54,0,0,1,.375-0.141h8.938a0.54,0.54,0,0,1,.375.141,0.462,0.462,0,0,1,.156.359,0.336,0.336,0,0,1-.094.25l-0.062.094-4.25,4.875a0.768,0.768,0,0,1-1.188,0l-4.25-4.875Z" transform="translate(-261 -555)"/>
</svg>
